<?xml version="1.0" encoding="UTF-8" standalone="no"?>
<!DOCTYPE svg PUBLIC "-//W3C//DTD SVG 1.1//EN"
 "http://www.w3.org/Graphics/SVG/1.1/DTD/svg11.dtd">
<!-- Generated by graphviz version 2.50.0 (0)
 -->
<!-- Pages: 1 -->
<svg width="750pt" height="400pt"
 viewBox="0.00 0.00 750.00 400.00" xmlns="http://www.w3.org/2000/svg" xmlns:xlink="http://www.w3.org/1999/xlink">
<g id="graph0" class="graph" transform="scale(1 1) rotate(0) translate(4 396)">
<polygon fill="white" stroke="transparent" points="-4,4 -4,-396 746,-396 746,4 -4,4"/>
<!-- node1 -->
<g id="node1" class="node">
<title>node1</title>
<polygon fill="lightblue" stroke="black" points="697.5,-392 41.5,-392 41.5,-339 697.5,-339 697.5,-392"/>
<text text-anchor="middle" x="369.5" y="-376.8" font-family="Times,serif" font-size="14.00">evaml</text>
<text text-anchor="middle" x="369.5" y="-361.8" font-family="Times,serif" font-size="14.00">name=&quot;teste&quot;</text>
<text text-anchor="middle" x="369.5" y="-346.8" font-family="Times,serif" font-size="14.00">{http://www.w3.org/2001/XMLSchema&#45;instance}noNamespaceSchemaLocation=&quot;xml_schema/evaml_schema.xsd&quot;</text>
</g>
<!-- node2 -->
<g id="node2" class="node">
<title>node2</title>
<polygon fill="lightblue" stroke="black" points="340.5,-303 282.5,-303 282.5,-267 340.5,-267 340.5,-303"/>
<text text-anchor="middle" x="311.5" y="-281.3" font-family="Times,serif" font-size="14.00">settings</text>
</g>
<!-- node1&#45;&gt;node2 -->
<g id="edge1" class="edge">
<title>node1&#45;&gt;node2</title>
<path fill="none" stroke="black" d="M350.51,-338.8C344.07,-330.08 336.87,-320.34 330.43,-311.63"/>
<polygon fill="black" stroke="black" points="333.06,-309.29 324.3,-303.33 327.43,-313.45 333.06,-309.29"/>
</g>
<!-- node6 -->
<g id="node6" class="node">
<title>node6</title>
<polygon fill="lightblue" stroke="black" points="559.5,-303 505.5,-303 505.5,-267 559.5,-267 559.5,-303"/>
<text text-anchor="middle" x="532.5" y="-281.3" font-family="Times,serif" font-size="14.00">script</text>
</g>
<!-- node1&#45;&gt;node6 -->
<g id="edge5" class="edge">
<title>node1&#45;&gt;node6</title>
<path fill="none" stroke="black" d="M422.87,-338.8C446.81,-327.27 474.44,-313.96 495.98,-303.59"/>
<polygon fill="black" stroke="black" points="497.61,-306.69 505.1,-299.19 494.57,-300.38 497.61,-306.69"/>
</g>
<!-- node3 -->
<g id="node3" class="node">
<title>node3</title>
<polygon fill="lightblue" stroke="black" points="197,-216 0,-216 0,-178 197,-178 197,-216"/>
<text text-anchor="middle" x="98.5" y="-200.8" font-family="Times,serif" font-size="14.00">voice</text>
<text text-anchor="middle" x="98.5" y="-185.8" font-family="Times,serif" font-size="14.00">tone=&quot;en&#45;US_EmmaExpressive&quot;</text>
</g>
<!-- node2&#45;&gt;node3 -->
<g id="edge2" class="edge">
<title>node2&#45;&gt;node3</title>
<path fill="none" stroke="black" d="M282.33,-272.22C249.03,-258.78 193.86,-236.5 152.63,-219.85"/>
<polygon fill="black" stroke="black" points="153.85,-216.57 143.26,-216.07 151.22,-223.06 153.85,-216.57"/>
</g>
<!-- node4 -->
<g id="node4" class="node">
<title>node4</title>
<polygon fill="lightblue" stroke="black" points="302,-216 215,-216 215,-178 302,-178 302,-216"/>
<text text-anchor="middle" x="258.5" y="-200.8" font-family="Times,serif" font-size="14.00">lightEffects</text>
<text text-anchor="middle" x="258.5" y="-185.8" font-family="Times,serif" font-size="14.00">mode=&quot;ON&quot;</text>
</g>
<!-- node2&#45;&gt;node4 -->
<g id="edge3" class="edge">
<title>node2&#45;&gt;node4</title>
<path fill="none" stroke="black" d="M300.77,-266.6C293.38,-254.6 283.41,-238.42 275.01,-224.79"/>
<polygon fill="black" stroke="black" points="277.98,-222.94 269.76,-216.27 272.03,-226.62 277.98,-222.94"/>
</g>
<!-- node5 -->
<g id="node5" class="node">
<title>node5</title>
<polygon fill="lightblue" stroke="black" points="407,-216 320,-216 320,-178 407,-178 407,-216"/>
<text text-anchor="middle" x="363.5" y="-200.8" font-family="Times,serif" font-size="14.00">audioEffects</text>
<text text-anchor="middle" x="363.5" y="-185.8" font-family="Times,serif" font-size="14.00">mode=&quot;ON&quot;</text>
</g>
<!-- node2&#45;&gt;node5 -->
<g id="edge4" class="edge">
<title>node2&#45;&gt;node5</title>
<path fill="none" stroke="black" d="M322.02,-266.6C329.21,-254.71 338.87,-238.73 347.07,-225.18"/>
<polygon fill="black" stroke="black" points="350.28,-226.64 352.45,-216.27 344.28,-223.01 350.28,-226.64"/>
</g>
<!-- node7 -->
<g id="node7" class="node">
<title>node7</title>
<polygon fill="lightblue" stroke="black" points="535.5,-231 425.5,-231 425.5,-163 535.5,-163 535.5,-231"/>
<text text-anchor="middle" x="480.5" y="-215.8" font-family="Times,serif" font-size="14.00">counter</text>
<text text-anchor="middle" x="480.5" y="-200.8" font-family="Times,serif" font-size="14.00">var=&quot;MY_VAR&quot;</text>
<text text-anchor="middle" x="480.5" y="-185.8" font-family="Times,serif" font-size="14.00">op=&quot;+&quot;</text>
<text text-anchor="middle" x="480.5" y="-170.8" font-family="Times,serif" font-size="14.00">value=&quot;100&quot;</text>
</g>
<!-- node6&#45;&gt;node7 -->
<g id="edge6" class="edge">
<title>node6&#45;&gt;node7</title>
<path fill="none" stroke="black" d="M521.98,-266.6C517.25,-258.78 511.45,-249.19 505.71,-239.69"/>
<polygon fill="black" stroke="black" points="508.64,-237.78 500.47,-231.03 502.65,-241.4 508.64,-237.78"/>
</g>
<!-- node8 -->
<g id="node8" class="node">
<title>node8</title>
<polygon fill="lightblue" stroke="black" points="615,-216 554,-216 554,-178 615,-178 615,-216"/>
<text text-anchor="middle" x="584.5" y="-200.8" font-family="Times,serif" font-size="14.00">switch</text>
<text text-anchor="middle" x="584.5" y="-185.8" font-family="Times,serif" font-size="14.00">var=&quot;$&quot;</text>
</g>
<!-- node6&#45;&gt;node8 -->
<g id="edge7" class="edge">
<title>node6&#45;&gt;node8</title>
<path fill="none" stroke="black" d="M543.02,-266.6C550.21,-254.71 559.87,-238.73 568.07,-225.18"/>
<polygon fill="black" stroke="black" points="571.28,-226.64 573.45,-216.27 565.28,-223.01 571.28,-226.64"/>
</g>
<!-- node15 -->
<g id="node15" class="node">
<title>node15</title>
<polygon fill="lightblue" stroke="black" points="742,-216 633,-216 633,-178 742,-178 742,-216"/>
<text text-anchor="middle" x="687.5" y="-200.8" font-family="Times,serif" font-size="14.00">wait</text>
<text text-anchor="middle" x="687.5" y="-185.8" font-family="Times,serif" font-size="14.00">duration=&quot;2000&quot;</text>
</g>
<!-- node6&#45;&gt;node15 -->
<g id="edge14" class="edge">
<title>node6&#45;&gt;node15</title>
<path fill="none" stroke="black" d="M559.85,-268.82C583.75,-255.57 618.78,-236.13 646.11,-220.97"/>
<polygon fill="black" stroke="black" points="648.01,-223.92 655.05,-216 644.61,-217.79 648.01,-223.92"/>
</g>
<!-- node9 -->
<g id="node9" class="node">
<title>node9</title>
<polygon fill="lightblue" stroke="black" points="526,-127 447,-127 447,-74 526,-74 526,-127"/>
<text text-anchor="middle" x="486.5" y="-111.8" font-family="Times,serif" font-size="14.00">case</text>
<text text-anchor="middle" x="486.5" y="-96.8" font-family="Times,serif" font-size="14.00">op=&quot;exact&quot;</text>
<text text-anchor="middle" x="486.5" y="-81.8" font-family="Times,serif" font-size="14.00">value=&quot;1&quot;</text>
</g>
<!-- node8&#45;&gt;node9 -->
<g id="edge8" class="edge">
<title>node8&#45;&gt;node9</title>
<path fill="none" stroke="black" d="M565.6,-177.78C552.79,-165.43 535.5,-148.75 520.35,-134.14"/>
<polygon fill="black" stroke="black" points="522.75,-131.59 513.12,-127.17 517.89,-136.63 522.75,-131.59"/>
</g>
<!-- node11 -->
<g id="node11" class="node">
<title>node11</title>
<polygon fill="lightblue" stroke="black" points="624,-127 545,-127 545,-74 624,-74 624,-127"/>
<text text-anchor="middle" x="584.5" y="-111.8" font-family="Times,serif" font-size="14.00">case</text>
<text text-anchor="middle" x="584.5" y="-96.8" font-family="Times,serif" font-size="14.00">op=&quot;exact&quot;</text>
<text text-anchor="middle" x="584.5" y="-81.8" font-family="Times,serif" font-size="14.00">value=&quot;2&quot;</text>
</g>
<!-- node8&#45;&gt;node11 -->
<g id="edge10" class="edge">
<title>node8&#45;&gt;node11</title>
<path fill="none" stroke="black" d="M584.5,-177.78C584.5,-166.33 584.5,-151.16 584.5,-137.36"/>
<polygon fill="black" stroke="black" points="588,-137.17 584.5,-127.17 581,-137.17 588,-137.17"/>
</g>
<!-- node13 -->
<g id="node13" class="node">
<title>node13</title>
<polygon fill="lightblue" stroke="black" points="722,-127 643,-127 643,-74 722,-74 722,-127"/>
<text text-anchor="middle" x="682.5" y="-111.8" font-family="Times,serif" font-size="14.00">case</text>
<text text-anchor="middle" x="682.5" y="-96.8" font-family="Times,serif" font-size="14.00">op=&quot;exact&quot;</text>
<text text-anchor="middle" x="682.5" y="-81.8" font-family="Times,serif" font-size="14.00">value=&quot;3&quot;</text>
</g>
<!-- node8&#45;&gt;node13 -->
<g id="edge12" class="edge">
<title>node8&#45;&gt;node13</title>
<path fill="none" stroke="black" d="M603.4,-177.78C616.21,-165.43 633.5,-148.75 648.65,-134.14"/>
<polygon fill="black" stroke="black" points="651.11,-136.63 655.88,-127.17 646.25,-131.59 651.11,-136.63"/>
</g>
<!-- node10 -->
<g id="node10" class="node">
<title>node10</title>
<polygon fill="lightblue" stroke="black" points="526,-38 445,-38 445,0 526,0 526,-38"/>
<text text-anchor="middle" x="485.5" y="-22.8" font-family="Times,serif" font-size="14.00">light</text>
<text text-anchor="middle" x="485.5" y="-7.8" font-family="Times,serif" font-size="14.00">state=&quot;ON&quot;</text>
</g>
<!-- node9&#45;&gt;node10 -->
<g id="edge9" class="edge">
<title>node9&#45;&gt;node10</title>
<path fill="none" stroke="black" d="M486.18,-73.91C486.08,-65.74 485.96,-56.65 485.86,-48.3"/>
<polygon fill="black" stroke="black" points="489.36,-48.19 485.73,-38.24 482.36,-48.28 489.36,-48.19"/>
</g>
<!-- node12 -->
<g id="node12" class="node">
<title>node12</title>
<polygon fill="lightblue" stroke="black" points="625,-38 544,-38 544,0 625,0 625,-38"/>
<text text-anchor="middle" x="584.5" y="-22.8" font-family="Times,serif" font-size="14.00">light</text>
<text text-anchor="middle" x="584.5" y="-7.8" font-family="Times,serif" font-size="14.00">state=&quot;ON&quot;</text>
</g>
<!-- node11&#45;&gt;node12 -->
<g id="edge11" class="edge">
<title>node11&#45;&gt;node12</title>
<path fill="none" stroke="black" d="M584.5,-73.91C584.5,-65.74 584.5,-56.65 584.5,-48.3"/>
<polygon fill="black" stroke="black" points="588,-48.24 584.5,-38.24 581,-48.24 588,-48.24"/>
</g>
<!-- node14 -->
<g id="node14" class="node">
<title>node14</title>
<polygon fill="lightblue" stroke="black" points="724,-38 643,-38 643,0 724,0 724,-38"/>
<text text-anchor="middle" x="683.5" y="-22.8" font-family="Times,serif" font-size="14.00">light</text>
<text text-anchor="middle" x="683.5" y="-7.8" font-family="Times,serif" font-size="14.00">state=&quot;ON&quot;</text>
</g>
<!-- node13&#45;&gt;node14 -->
<g id="edge13" class="edge">
<title>node13&#45;&gt;node14</title>
<path fill="none" stroke="black" d="M682.82,-73.91C682.92,-65.74 683.04,-56.65 683.14,-48.3"/>
<polygon fill="black" stroke="black" points="686.64,-48.28 683.27,-38.24 679.64,-48.19 686.64,-48.28"/>
</g>
</g>
</svg>
